<svg width="66" height="65" viewBox="0 0 66 65" fill="none" xmlns="http://www.w3.org/2000/svg">
<path d="M32.9493 2.5C49.8343 2.5 63.3986 15.7815 63.3986 32.0149C63.3986 48.2483 49.8343 61.5299 32.9493 61.5299C16.0643 61.5299 2.5 48.2483 2.5 32.0149C2.5 15.7815 16.0643 2.5 32.9493 2.5Z" stroke="#82BB81" stroke-width="5"/>
<path d="M50.5754 42.4511C50.5754 47.7715 46.1364 52.0846 40.6608 52.0846H25.2381C19.7624 52.0846 15.3235 47.7715 15.3235 42.4511V33.5311C15.3235 32.4966 16.1866 31.6579 17.2513 31.6579H18.7489C19.8136 31.6579 20.6767 32.4966 20.6767 33.5311V44.522C20.6767 45.5566 21.5398 46.3952 22.6046 46.3952H24.7428C25.0259 46.3952 25.2554 46.1723 25.2554 45.8972V45.795C25.2554 44.3586 26.4538 43.1942 27.9318 43.1942C29.4102 43.1942 30.6085 44.3586 30.6085 45.795V45.8972C30.6085 46.1723 30.838 46.3952 31.1211 46.3952H43.2945C44.3592 46.3952 45.2224 45.5566 45.2224 44.522V33.4083C45.2224 32.3737 46.0854 31.5351 47.1502 31.5351H48.6476C49.7123 31.5351 50.5754 32.3737 50.5754 33.4083V42.4511ZM50.5754 33.5043C50.5754 34.5389 49.7123 35.3775 48.6476 35.3775H17.2513C16.1866 35.3775 15.3235 34.5389 15.3235 33.5043V23.3546C15.3235 21.0852 15.7251 19.1988 16.5284 17.696C17.3202 16.1827 18.4046 15.0531 19.7816 14.3067C21.1586 13.5502 22.7193 13.172 24.4635 13.172C25.898 13.172 27.1257 13.4175 28.147 13.908C29.1568 14.3988 29.9773 15.0581 30.6085 15.8862C31.2097 16.6751 31.6492 17.5519 31.9277 18.5167C31.9525 18.6022 32.032 18.6622 32.1235 18.6622C32.2295 18.6622 32.3171 18.5817 32.3268 18.4789C32.4246 17.4304 32.8043 16.423 33.4658 15.4568C34.1544 14.4244 35.1298 13.5808 36.392 12.9266C37.6542 12.2723 39.1805 11.9452 40.9707 11.9452C42.7952 11.9452 44.4361 12.3389 45.8935 13.126C47.3394 13.9133 48.4812 15.0991 49.3191 16.6836C50.1566 18.2685 50.5754 20.2622 50.5754 22.6647V33.5043ZM43.3115 29.6882C44.3763 29.6882 45.2394 28.8495 45.2394 27.815V23.5694C45.2394 21.5041 44.7977 20.0167 43.914 19.1067C43.0188 18.1868 41.8715 17.7266 40.4717 17.7266C39.4273 17.7266 38.4862 17.9565 37.6486 18.4167C36.7993 18.8766 36.134 19.5309 35.6521 20.3795C35.1585 21.2281 34.9117 22.2404 34.9117 23.416V27.815C34.9117 28.8495 35.7749 29.6882 36.8396 29.6882H43.3115ZM28.3882 29.6882C29.4529 29.6882 30.316 28.8495 30.316 27.815V24.0603C30.316 23.0785 30.1149 22.1944 29.7134 21.4069C29.3004 20.6199 28.7209 20.0013 27.975 19.5515C27.2177 19.0915 26.3226 18.8615 25.2899 18.8615C23.9242 18.8615 22.7996 19.2909 21.916 20.1496C21.0324 20.9981 20.5906 22.261 20.5906 23.9376V27.815C20.5906 28.8495 21.4537 29.6882 22.5184 29.6882H28.3882Z" fill="#82BB81"/>
</svg>
