<svg width="326" height="66" viewBox="0 0 326 66" fill="none" xmlns="http://www.w3.org/2000/svg">
<path d="M98.0025 30.936H114.178V36.984H98.0025V30.936ZM98.5785 44.76H116.866V51H90.8505V17.4H116.242V23.64H98.5785V44.76ZM137.79 51.384C135.518 51.384 133.566 50.904 131.934 49.944C130.302 48.984 129.054 47.528 128.19 45.576C127.326 43.592 126.894 41.096 126.894 38.088C126.894 35.048 127.342 32.552 128.238 30.6C129.166 28.648 130.446 27.192 132.078 26.232C133.71 25.272 135.614 24.792 137.79 24.792C140.222 24.792 142.398 25.336 144.318 26.424C146.27 27.512 147.806 29.048 148.926 31.032C150.078 33.016 150.654 35.368 150.654 38.088C150.654 40.776 150.078 43.112 148.926 45.096C147.806 47.08 146.27 48.632 144.318 49.752C142.398 50.84 140.222 51.384 137.79 51.384ZM122.526 51V15.384H130.014V30.408L129.534 38.04L129.678 45.72V51H122.526ZM136.494 45.24C137.742 45.24 138.846 44.952 139.806 44.376C140.798 43.8 141.582 42.984 142.158 41.928C142.766 40.84 143.07 39.56 143.07 38.088C143.07 36.584 142.766 35.304 142.158 34.248C141.582 33.192 140.798 32.376 139.806 31.8C138.846 31.224 137.742 30.936 136.494 30.936C135.246 30.936 134.126 31.224 133.134 31.8C132.142 32.376 131.358 33.192 130.782 34.248C130.206 35.304 129.918 36.584 129.918 38.088C129.918 39.56 130.206 40.84 130.782 41.928C131.358 42.984 132.142 43.8 133.134 44.376C134.126 44.952 135.246 45.24 136.494 45.24ZM168.482 51.384C165.538 51.384 162.946 50.808 160.706 49.656C158.498 48.504 156.786 46.936 155.57 44.952C154.354 42.936 153.746 40.648 153.746 38.088C153.746 35.496 154.338 33.208 155.522 31.224C156.738 29.208 158.386 27.64 160.466 26.52C162.546 25.368 164.898 24.792 167.522 24.792C170.05 24.792 172.322 25.336 174.338 26.424C176.386 27.48 178.002 29.016 179.186 31.032C180.37 33.016 180.962 35.4 180.962 38.184C180.962 38.472 180.946 38.808 180.914 39.192C180.882 39.544 180.85 39.88 180.818 40.2H159.842V35.832H176.882L174.002 37.128C174.002 35.784 173.73 34.616 173.186 33.624C172.642 32.632 171.89 31.864 170.93 31.32C169.97 30.744 168.85 30.456 167.57 30.456C166.29 30.456 165.154 30.744 164.162 31.32C163.202 31.864 162.45 32.648 161.906 33.672C161.362 34.664 161.09 35.848 161.09 37.224V38.376C161.09 39.784 161.394 41.032 162.002 42.12C162.642 43.176 163.522 43.992 164.642 44.568C165.794 45.112 167.138 45.384 168.674 45.384C170.05 45.384 171.25 45.176 172.274 44.76C173.33 44.344 174.29 43.72 175.154 42.888L179.138 47.208C177.954 48.552 176.466 49.592 174.674 50.328C172.882 51.032 170.818 51.384 168.482 51.384ZM185.947 51V15.384H193.435V51H185.947ZM208.977 51L197.985 17.4H206.049L215.601 47.16H211.569L221.553 17.4H228.753L238.353 47.16H234.465L244.257 17.4H251.697L240.705 51H232.353L223.857 24.888H226.065L217.329 51H208.977ZM263.19 30.936H279.366V36.984H263.19V30.936ZM263.766 44.76H282.054V51H256.038V17.4H281.43V23.64H263.766V44.76ZM288.241 51V17.4H304.657C308.881 17.4 312.049 18.2 314.161 19.8C316.305 21.4 317.377 23.512 317.377 26.136C317.377 27.896 316.945 29.432 316.081 30.744C315.217 32.024 314.033 33.016 312.529 33.72C311.025 34.424 309.297 34.776 307.345 34.776L308.257 32.808C310.369 32.808 312.241 33.16 313.873 33.864C315.505 34.536 316.769 35.544 317.665 36.888C318.593 38.232 319.057 39.88 319.057 41.832C319.057 44.712 317.921 46.968 315.649 48.6C313.377 50.2 310.033 51 305.617 51H288.241ZM295.969 45.144H305.041C307.057 45.144 308.577 44.824 309.601 44.184C310.657 43.512 311.185 42.456 311.185 41.016C311.185 39.608 310.657 38.568 309.601 37.896C308.577 37.192 307.057 36.84 305.041 36.84H295.393V31.176H303.697C305.585 31.176 307.025 30.856 308.017 30.216C309.041 29.544 309.553 28.536 309.553 27.192C309.553 25.88 309.041 24.904 308.017 24.264C307.025 23.592 305.585 23.256 303.697 23.256H295.969V45.144Z" fill="#82BB81"/>
<g clip-path="url(#clip0_723_12)">
<mask id="mask0_723_12" style="mask-type:luminance" maskUnits="userSpaceOnUse" x="0" y="0" width="66" height="66">
<path d="M65.8986 0H0V66H65.8986V0Z" fill="white"/>
</mask>
<g mask="url(#mask0_723_12)">
<path d="M32.9493 2.5C49.8343 2.5 63.3986 15.7815 63.3986 32.0149C63.3986 48.2483 49.8343 61.5299 32.9493 61.5299C16.0643 61.5299 2.5 48.2483 2.5 32.0149C2.5 15.7815 16.0643 2.5 32.9493 2.5Z" stroke="#82BB81" stroke-width="5"/>
<path d="M50.5754 42.4511C50.5754 47.7715 46.1364 52.0846 40.6608 52.0846H25.2381C19.7624 52.0846 15.3235 47.7715 15.3235 42.4511V33.5311C15.3235 32.4966 16.1866 31.6579 17.2513 31.6579H18.7489C19.8136 31.6579 20.6767 32.4966 20.6767 33.5311V44.522C20.6767 45.5566 21.5398 46.3952 22.6046 46.3952H24.7428C25.0259 46.3952 25.2554 46.1723 25.2554 45.8972V45.795C25.2554 44.3586 26.4538 43.1942 27.9318 43.1942C29.4102 43.1942 30.6085 44.3586 30.6085 45.795V45.8972C30.6085 46.1723 30.838 46.3952 31.1211 46.3952H43.2945C44.3592 46.3952 45.2224 45.5566 45.2224 44.522V33.4083C45.2224 32.3737 46.0854 31.5351 47.1502 31.5351H48.6476C49.7123 31.5351 50.5754 32.3737 50.5754 33.4083V42.4511ZM50.5754 33.5043C50.5754 34.5389 49.7123 35.3775 48.6476 35.3775H17.2513C16.1866 35.3775 15.3235 34.5389 15.3235 33.5043V23.3546C15.3235 21.0852 15.7251 19.1988 16.5284 17.696C17.3202 16.1827 18.4046 15.0531 19.7816 14.3067C21.1586 13.5502 22.7193 13.172 24.4635 13.172C25.898 13.172 27.1257 13.4175 28.147 13.908C29.1568 14.3988 29.9773 15.0581 30.6085 15.8862C31.2097 16.6751 31.6492 17.5519 31.9277 18.5167C31.9525 18.6022 32.032 18.6622 32.1235 18.6622C32.2295 18.6622 32.3171 18.5817 32.3268 18.4789C32.4246 17.4304 32.8043 16.423 33.4658 15.4568C34.1544 14.4244 35.1298 13.5808 36.392 12.9266C37.6542 12.2723 39.1805 11.9452 40.9707 11.9452C42.7952 11.9452 44.4361 12.3389 45.8935 13.126C47.3394 13.9133 48.4812 15.0991 49.3191 16.6836C50.1566 18.2685 50.5754 20.2622 50.5754 22.6647V33.5043ZM43.3115 29.6882C44.3763 29.6882 45.2394 28.8495 45.2394 27.815V23.5694C45.2394 21.5041 44.7977 20.0167 43.914 19.1067C43.0188 18.1868 41.8715 17.7266 40.4717 17.7266C39.4273 17.7266 38.4862 17.9565 37.6486 18.4167C36.7993 18.8766 36.134 19.5309 35.6521 20.3795C35.1585 21.2281 34.9117 22.2404 34.9117 23.416V27.815C34.9117 28.8495 35.7749 29.6882 36.8396 29.6882H43.3115ZM28.3882 29.6882C29.4529 29.6882 30.316 28.8495 30.316 27.815V24.0603C30.316 23.0785 30.1149 22.1944 29.7134 21.4069C29.3004 20.6199 28.7209 20.0013 27.975 19.5515C27.2177 19.0915 26.3226 18.8615 25.2899 18.8615C23.9242 18.8615 22.7996 19.2909 21.916 20.1496C21.0324 20.9981 20.5906 22.261 20.5906 23.9376V27.815C20.5906 28.8495 21.4537 29.6882 22.5184 29.6882H28.3882Z" fill="#82BB81"/>
</g>
</g>
<defs>
<clipPath id="clip0_723_12">
<rect width="65.8986" height="66" fill="white"/>
</clipPath>
</defs>
</svg>
